<svg width="30" height="50" viewBox="0 0 30 50" fill="none" xmlns="http://www.w3.org/2000/svg">
<path d="M14.9782 21.9463L14.9882 21.9529V17.9202L5.8855 33.6833L7.04197 35.6881L14.9782 21.9463Z" fill="white"/>
<path d="M14.9783 16.4322L14.9882 16.4389V12.4061L4.29498 30.9296L5.45145 32.931L14.9783 16.4322Z" fill="white"/>
<path d="M2.26707 27.4173L14.9783 5.40789L14.9883 5.41452V0.550049L0.872009 24.9983L2.26707 27.4173Z" fill="white"/>
<path d="M14.9782 10.9184L14.9881 10.9251V6.89563L2.70105 28.1727L3.85752 30.1742L14.9782 10.9184Z" fill="white"/>
<path d="M15.6211 0.549927V49.4498L29.7407 24.9982L15.6211 0.549927Z" fill="white"/>
<path d="M14.9782 27.4569L14.9882 27.4635V23.4308L7.47607 36.4403L8.63255 38.4417L14.9782 27.4569Z" fill="white"/>
<path d="M14.9782 32.9709L14.9882 32.9776V28.9448L9.06995 39.1973L10.2264 41.1988L14.9782 32.9709Z" fill="white"/>
<path d="M14.9882 44.2009L13.4738 46.8254L14.9882 49.4498V44.2009Z" fill="white"/>
<path d="M13.0398 46.0698L14.9782 42.7131L14.9882 42.7197V39.9694L12.2511 44.7112L13.0398 46.0698Z" fill="white"/>
<path d="M14.9782 38.4815L14.9882 38.4882V34.4587L10.6605 41.9543L11.817 43.9557L14.9782 38.4815Z" fill="white"/>
</svg>
